<svg width="48" height="48" viewBox="0 0 48 48" fill="none" xmlns="http://www.w3.org/2000/svg">
<line x1="3" y1="45.5" x2="45" y2="45.5" stroke="url(#paint0_linear_13089_71614)"/>
<path d="M23.9881 2C21.2317 1.99904 18.502 2.55898 15.9552 3.64783C13.4084 4.73668 11.0943 6.3331 9.1452 8.34586C7.19609 10.3586 5.65015 12.7483 4.59573 15.3782C3.5413 18.0082 2.99907 20.827 3 23.6735V44H45V23.6735C44.9962 17.9223 42.7805 12.4081 38.8402 8.34366C34.8998 4.27924 29.5575 1.9974 23.9881 2Z" fill="url(#paint1_linear_13089_71614)"/>
<g style="mix-blend-mode:overlay" filter="url(#filter0_f_13089_71614)">
<path d="M24 34C30.6274 34 36 28.6274 36 22C36 15.3726 30.6274 10 24 10C17.3726 10 12 15.3726 12 22C12 28.6274 17.3726 34 24 34Z" fill="url(#paint2_linear_13089_71614)"/>
</g>
<g filter="url(#filter1_f_13089_71614)">
<path d="M45 24.4311C44.909 24.4164 44.8172 24.4094 44.7253 24.4101C44.1046 24.3876 43.7419 23.9311 43.1211 23.8865C42.9021 23.864 42.3882 24.3879 42.1858 24.4356C42.1111 24.4465 42.0359 24.4521 41.9607 24.4524C41.8838 24.4528 41.8069 24.4462 41.7309 24.4328C41.3294 24.3879 41.351 24.2494 40.8153 24.3373C40.7351 24.3373 40.4554 24.0944 40.3859 24.094C40.1078 24.0923 39.5927 23.7661 39.5373 23.7597C38.1746 23.6372 36.949 24.2988 35.718 23.7516C35.13 23.5183 34.1751 23.5061 33.8568 22.8072C31.4386 22.1826 30.6734 22.7213 29.4161 22.5665C28.6217 22.3858 27.73 22.3108 26.9927 22.0312C26.2682 21.7564 25.7537 20.8791 25.0861 20.5348C25.0536 20.4978 25.0536 20.4606 25.0208 20.4238C24.6292 20.2199 24.172 20.0895 23.7801 19.9052C23.4082 19.6946 23.0871 19.8471 22.6896 19.6406C22.572 19.5795 22.3591 19.5358 22.298 19.4369C22.298 19.3047 21.7211 18.0494 21.576 18C21.135 18.1208 20.7681 17.9616 20.3242 18.0919C19.8802 18.2223 19.4302 18.8682 18.965 19.0107C17.9239 19.33 17.5478 19.9045 16.3222 19.6731C15.7926 20.2223 15.4872 19.7022 14.965 19.8319C14.8669 19.8505 14.4047 20.5365 14.2413 20.6475C13.689 21.0747 13.1161 21.2108 12.5743 21.8175C12.0237 22.4331 11.984 22.3982 11.9462 22.3982C11.7833 22.4352 11.6858 22.1231 11.555 22.1594C10.7465 22.4545 9.99573 22.8024 9.08706 22.9338C8.15487 23.0687 7.00659 22.9287 6.13488 23.2334C5.62773 23.4108 5.37888 23.7699 4.92675 23.9927C4.39965 24.252 3.6867 24.4184 3 24.5376V30H45V24.4311Z" fill="url(#paint3_linear_13089_71614)"/>
</g>
<path d="M3 21.9419C3.13851 21.8508 3.28155 21.7794 3.42754 21.7285C3.48864 21.6721 3.55206 21.6218 3.61653 21.5757C3.78788 21.4528 3.97015 21.3692 4.14927 21.2838C4.31012 21.2067 4.43821 21.3551 4.58226 21.4397C4.60133 21.4508 4.62075 21.4603 4.64043 21.468C4.88381 21.4391 5.12697 21.4198 5.35565 21.406C5.47094 21.3602 5.58307 21.2972 5.70129 21.2656C5.76097 21.2498 5.82006 21.2287 5.87831 21.2022C5.9285 21.1792 5.97197 21.1313 6.0253 21.1224C6.1303 21.1045 6.24873 21.1988 6.35205 21.2256C6.49382 21.2631 6.63725 21.2811 6.78084 21.2797C6.91398 21.2769 7.04564 21.2318 7.17793 21.2108C7.27473 21.1954 7.37217 21.2081 7.46918 21.2108L7.53638 21.2139C7.66783 21.1355 7.79572 21.0418 7.92696 20.9603C8.0171 20.9052 8.10335 20.8344 8.1842 20.7489C8.26504 20.6618 8.32951 20.5383 8.40321 20.4367C8.46936 20.3448 8.55273 20.2897 8.6132 20.1885C8.65877 20.1132 8.6972 20.0268 8.76355 20.0058C8.89144 19.9662 9.00126 20.1386 9.08882 20.2632C9.11563 20.3023 9.14367 20.3391 9.17282 20.3734C9.18983 20.3927 9.23771 20.4126 9.22826 20.4247C9.27341 20.3675 9.28789 20.3011 9.35425 20.2928C9.49998 20.2746 9.60834 20.4935 9.73034 20.5906C9.83764 20.6759 9.95482 20.7317 10.0535 20.836C10.2444 20.9122 10.4392 20.9583 10.6354 20.9737C10.7576 20.9802 10.8145 21.1114 10.9214 21.183C10.9586 21.2081 11.0894 21.2745 11.1692 21.267C11.1905 21.2399 11.2129 21.2154 11.2364 21.1936H11.2385C11.2456 21.1733 11.2568 21.1576 11.2702 21.1491C11.2836 21.1405 11.2983 21.1398 11.312 21.1468C11.3673 21.1206 11.4247 21.1078 11.4823 21.109C11.4918 21.1093 11.5012 21.1128 11.5098 21.1192C11.5185 21.1257 11.5262 21.135 11.5326 21.1465C11.539 21.158 11.5439 21.1716 11.5471 21.1863C11.5502 21.201 11.5514 21.2166 11.5507 21.2322C11.5615 21.2356 11.5714 21.2438 11.5795 21.256C11.5875 21.2681 11.5934 21.2837 11.5963 21.301C11.6578 21.6149 11.8151 21.7802 11.9699 21.955C11.9805 21.9447 11.9927 21.9392 12.005 21.9392C12.0174 21.9392 12.0296 21.9447 12.0402 21.955C12.0425 21.9437 12.0448 21.9326 12.0467 21.9206C12.0528 21.8862 12.0574 21.8518 12.0642 21.8173C12.0799 21.7368 12.1408 21.6852 12.188 21.7354C12.2828 21.8363 12.3382 21.9901 12.4153 22.1206C12.5018 22.2676 12.6584 22.2882 12.7756 22.3106C12.865 22.3278 12.9646 22.2328 13.0486 22.2855C13.0952 22.3126 13.1401 22.3472 13.1826 22.3887C13.2739 22.409 13.2676 22.4772 13.2827 22.5474C13.288 22.5609 13.2929 22.575 13.2972 22.5894C13.298 22.5923 13.2987 22.5953 13.2993 22.5983C13.3045 22.6094 13.3105 22.6193 13.3172 22.628C13.4266 22.5316 13.4994 22.3385 13.6777 22.4558C13.7972 22.5172 13.922 22.5465 14.0473 22.5426C14.0946 22.5162 14.1456 22.5121 14.1943 22.5309C14.5594 22.6593 14.7421 23.2055 15.1436 23.1092C15.1945 23.1009 15.2446 23.0902 15.2942 23.0778C15.3717 23.0458 15.4563 23.0345 15.5279 23.0035C15.685 22.9346 15.8196 22.7908 15.9668 22.6851C16.0964 22.5922 16.2211 22.6101 16.3578 22.6221C16.5221 22.5392 16.6899 22.4764 16.8599 22.4342C16.9189 22.4083 17.2889 22.7887 17.2935 22.8617C17.3242 22.9343 17.3941 23.0173 17.4892 23.1057C17.4912 23.1052 17.4931 23.1052 17.4951 23.1057C17.5399 23.1151 17.5838 23.1338 17.6257 23.1615C17.6862 23.1959 17.7433 23.2355 17.8057 23.2609C17.9375 23.315 18.0736 23.3346 18.2046 23.389C18.3575 23.452 18.465 23.6781 18.6261 23.6668C18.7871 23.6554 18.8831 23.77 18.9759 23.9669C19.0106 24.0409 19.0645 24.137 19.1294 24.1187C19.1943 24.1005 19.2611 24.1015 19.3073 24.1876C19.4436 24.4357 19.5952 24.6519 19.7903 24.7686C19.9809 24.8829 20.1819 24.8429 20.3765 24.7813C20.5324 24.7317 20.6982 24.6471 20.858 24.6781C20.8982 24.6552 20.9357 24.6214 20.9689 24.5779C21.0271 24.4987 21.0966 24.3831 21.1789 24.3831C21.2551 24.3831 21.3708 24.5727 21.4767 24.6736C21.4898 24.6539 21.5069 24.6428 21.5248 24.6423C21.5837 24.6408 21.6426 24.6451 21.7012 24.6553C21.7153 24.6571 21.7287 24.6656 21.7399 24.6798C21.7511 24.694 21.7596 24.7132 21.7641 24.7352L21.7667 24.728C21.7841 24.6643 21.8118 24.6096 21.8316 24.5373C21.8513 24.465 21.9034 24.465 21.9384 24.4915C22.0766 24.5948 22.1591 24.814 22.2702 24.9734C22.3362 25.0677 22.4254 25.0887 22.5071 25.1231C22.5924 25.1623 22.6745 25.2187 22.7513 25.2911C22.883 25.4078 23.0113 25.2673 23.1396 25.3689C23.2893 25.4873 23.4281 25.6549 23.5887 25.7337C23.5946 25.7363 23.6001 25.7411 23.6045 25.7479C23.609 25.7547 23.6124 25.7632 23.6144 25.7726C23.8403 25.8556 24.0604 25.9034 24.2708 25.8869C24.4445 25.8859 24.6181 25.8652 24.7901 25.825C24.8482 25.7864 24.9085 25.7561 24.9627 25.7217C25.0324 25.678 25.0887 25.5978 25.1567 25.5537C25.2214 25.5121 25.288 25.5258 25.3554 25.5097C25.4072 25.4973 25.4368 25.4198 25.4906 25.4102C25.5185 25.4064 25.5466 25.405 25.5746 25.4061C25.6082 25.4061 25.6607 25.3448 25.6911 25.3197C25.7659 25.2592 25.8426 25.2054 25.9209 25.1586C25.9382 25.1042 25.967 25.062 26.0019 25.0398C26.0649 24.9982 26.1699 25.0426 26.2367 25.0426C26.2839 25.0426 26.3308 25.0384 26.3776 25.0336C26.6135 24.8564 26.8418 24.6533 27.0611 24.4257C27.0916 24.3517 27.1178 24.2664 27.1661 24.2037C27.2985 24.1819 27.3812 24.1131 27.4141 23.9972C27.5233 23.8206 27.7421 23.7563 27.8551 23.5996C28.1932 23.4826 28.6392 23.304 29.0335 23.1969C29.0819 23.1563 29.1321 23.1218 29.1837 23.0937C29.3905 22.9814 29.6666 23.0403 29.8025 22.703C29.8126 22.6754 29.828 22.654 29.8462 22.6419C29.8644 22.6299 29.8845 22.6279 29.9035 22.6362C29.9278 22.6507 29.9529 22.6613 29.9785 22.6679C30.0548 22.5897 30.1346 22.5206 30.217 22.4614C30.406 22.3116 30.5436 21.9915 30.754 21.9151C30.9535 21.8425 31.128 22.1185 31.2907 22.2562C31.2978 22.2621 31.3048 22.2676 31.3117 22.2727C31.3542 22.2853 31.3963 22.3019 31.4377 22.3223H31.4455C31.7138 22.2703 31.9857 22.2967 32.2485 22.4001C32.3721 22.386 32.4841 22.3027 32.6092 22.3574C32.709 22.4008 32.8041 22.471 32.9032 22.5216C32.9679 22.556 33.1195 22.6441 33.1705 22.5268C33.1802 22.501 33.1956 22.4824 33.2135 22.4747C33.2313 22.467 33.2503 22.4709 33.2665 22.4854C33.5143 22.7164 33.7207 23.0658 34.0096 23.157C34.1419 23.1986 34.2883 23.1405 34.4145 23.2286C34.4577 23.2601 34.4987 23.299 34.5369 23.3446C34.6269 23.3781 34.7147 23.4253 34.7994 23.4854C35.4485 23.6379 36.1765 23.6182 36.7916 23.4933C36.8301 23.4659 36.8697 23.4423 36.91 23.4227C36.9841 23.3883 37.0626 23.3763 37.1313 23.3164C37.1733 23.2795 37.2052 23.232 37.2531 23.2131C37.3606 23.1728 37.4591 23.2785 37.5567 23.1876C37.6374 23.1122 37.7258 23.0906 37.8045 23.0269C37.8143 23.0019 37.8278 22.9815 37.8438 22.9677C37.8545 22.9592 37.8658 22.9526 37.8774 22.9481C37.882 22.9412 37.8866 22.9346 37.8913 22.9271C37.9043 22.9065 37.9214 22.8942 37.9395 22.8922C37.9576 22.8903 37.9755 22.8988 37.9902 22.9164C37.9996 22.912 38.0086 22.906 38.0173 22.8985C38.03 22.8866 38.0448 22.8823 38.0593 22.8864C38.0662 22.8532 38.0781 22.8232 38.0938 22.7992C38.1095 22.7752 38.1286 22.7579 38.1493 22.7488C38.2209 22.7212 38.269 22.7629 38.3207 22.8427C38.3444 22.8796 38.3667 22.9161 38.3925 22.9494C38.407 22.968 38.4221 22.9839 38.4374 23.0021L38.4599 23.0245C38.482 23.0472 38.4862 23.0468 38.4725 23.0245C38.5162 22.9594 38.5744 22.9212 38.6313 22.9701C38.7069 23.0362 38.8137 23.0224 38.8849 22.9567C38.9937 22.8565 39.1008 23.0307 39.202 23.1315C39.425 23.1229 39.6489 23.1157 39.871 23.1043C39.9519 23.0453 40.0374 23.0049 40.1251 22.9845C40.1776 22.9735 40.2301 22.9697 40.282 22.9532C40.3404 22.935 40.3916 22.8713 40.4409 22.8207C40.5233 22.7371 40.6358 22.7691 40.661 22.5911C40.6744 22.4954 40.745 22.4841 40.7847 22.5381C40.8133 22.5763 40.8431 22.6118 40.8727 22.6483C40.9567 22.556 41.0407 22.4607 41.1247 22.3691C41.1328 22.3541 41.1433 22.3429 41.1549 22.3367C41.1906 22.2985 41.2263 22.261 41.2628 22.2256C41.2753 22.2142 41.29 22.2111 41.3039 22.217C41.3177 22.2229 41.3296 22.2373 41.3372 22.2572C41.3454 22.2751 41.3536 22.2917 41.362 22.3096C41.3639 22.3117 41.3658 22.314 41.3676 22.3164C41.4554 22.3199 41.5493 22.4166 41.6196 22.4823C41.6898 22.5448 41.762 22.601 41.8359 22.6507L41.8815 22.6465C41.8867 22.6407 41.8924 22.6355 41.8976 22.6293C41.9642 22.5512 42.0236 22.4645 42.1017 22.4156C42.2046 22.3516 42.3117 22.325 42.4209 22.2999C42.5202 22.2765 42.6074 22.2486 42.6939 22.1622C42.7655 22.0934 42.8312 22.0187 42.9104 21.9729C42.9829 21.9309 43.0664 21.9361 43.1437 21.9351C43.2936 21.8401 43.4427 21.7402 43.5891 21.6284C43.6607 21.5964 43.7363 21.5964 43.8079 21.6284C44.1892 21.8521 44.5706 22.0029 45 22.123V28H3V21.9419ZM8.7604 20.3569C8.75788 20.351 8.75516 20.3452 8.75222 20.339C8.74697 20.3479 8.74151 20.3565 8.73605 20.3651L8.7604 20.3569Z" fill="url(#paint4_linear_13089_71614)"/>
<g style="mix-blend-mode:screen">
<g style="mix-blend-mode:color-dodge">
<path d="M37.8469 18.9951L32.1967 15.0366L30.8686 14.3469L23.7336 12.4617L22.7254 12.1554L13.7365 15.8245L8.88389 21.5701L7.0332 30.7573L11.8215 36.3349L21.255 39.1687L31.7505 38.2763L39.2763 33.8829L41.1157 27.7506L37.8469 18.9951Z" fill="url(#paint5_linear_13089_71614)"/>
</g>
</g>
<g style="mix-blend-mode:screen">
<g style="mix-blend-mode:color-dodge">
<path d="M37.8469 18.9951L32.1967 15.0366L30.8686 14.3469L23.7336 12.4617L22.7254 12.1554L13.7365 15.8245L8.88389 21.5701L7.0332 30.7573L11.8215 36.3349L21.255 39.1687L31.7505 38.2763L39.2763 33.8829L41.1157 27.7506L37.8469 18.9951Z" fill="url(#paint6_linear_13089_71614)"/>
</g>
</g>
<g style="mix-blend-mode:color-burn">
<g style="mix-blend-mode:multiply" opacity="0.1">
<path d="M21.5004 19C16.7684 19 12.031 20.0254 8.41846 22.0752C4.80589 24.1251 3 26.813 3 29.5C3 32.187 4.80589 34.874 8.41924 36.9248C12.0326 38.9755 16.7661 40 21.5004 40C26.2347 40 30.9697 38.9755 34.5815 36.9248C38.1933 34.874 40 32.1878 40 29.5C40 26.8121 38.1941 24.1259 34.5815 22.0761C30.9689 20.0262 26.2347 19 21.5004 19Z" fill="black"/>
</g>
<path d="M23.981 15.1416L19.8398 21.9365L30.2894 20.9859L23.981 15.1416Z" fill="white"/>
<path d="M26.1618 30.2104L19.8398 21.9369L30.2894 20.9863L26.1618 30.2104Z" fill="white"/>
<path d="M16.9219 30.804L19.8376 21.9365L26.1596 30.2101L16.9219 30.804Z" fill="white"/>
<path d="M34.7647 29.2815L30.2877 20.9863L26.1602 30.2104L34.7647 29.2815Z" fill="white"/>
<path d="M21.207 38.9307L26.1617 30.21L31.6702 38.0411L21.207 38.9307Z" fill="white"/>
<path d="M16.9219 30.8038L21.2049 38.9307L26.1596 30.21L16.9219 30.8038Z" fill="white"/>
<path d="M34.7647 29.2812L31.6687 38.0413L26.1602 30.2102L34.7647 29.2812Z" fill="white"/>
<path d="M11.8008 36.1054L16.9222 30.8037L21.2052 38.9306L11.8008 36.1054Z" fill="white"/>
<path d="M10.9513 25.6133L11.8009 36.1053L7.02734 30.5447L10.9513 25.6133Z" fill="white"/>
<path d="M16.9241 30.8036L10.9531 25.6133L11.8027 36.1053L16.9241 30.8036Z" fill="white"/>
<path d="M8.87233 21.3857L10.9513 25.6135L7.02734 30.5449L8.87233 21.3857Z" fill="white"/>
<path d="M15.1025 16.3691L10.9501 25.6141L8.87109 21.3863L15.1025 16.3691Z" fill="white"/>
<path d="M13.7088 15.6582L8.87109 21.3863L15.1025 16.3691L13.7088 15.6582Z" fill="white"/>
<path d="M19.8398 21.9365L10.9531 25.6137L16.9241 30.804L19.8398 21.9365Z" fill="white"/>
<path d="M15.1055 16.3691L19.8398 21.937L10.9531 25.6141L15.1055 16.3691Z" fill="white"/>
<path d="M23.9809 15.1416L15.1055 16.3687L19.8398 21.9365L23.9809 15.1416Z" fill="white"/>
<path d="M32.1146 14.8721L30.2888 20.9857L23.9805 15.1414L32.1146 14.8721Z" fill="white"/>
<path d="M22.6737 12L15.1055 16.3688L23.9809 15.1418L22.6737 12Z" fill="white"/>
<path d="M13.7109 15.6579L22.673 12L15.1047 16.3688L13.7109 15.6579Z" fill="white"/>
<path d="M23.9791 15.1418L32.1132 14.8725L22.6719 12L23.9791 15.1418Z" fill="white"/>
<path d="M30.7903 14.1848L32.1143 14.8725L22.6914 12.0449L30.7903 14.1848Z" fill="white"/>
<path d="M30.7903 14.1848L32.1143 14.8725L22.6914 12.0449L30.7903 14.1848Z" fill="white"/>
<path d="M38.4216 23.1407L30.2891 20.9863L34.7661 29.2815L38.4216 23.1407Z" fill="white"/>
<path d="M32.1148 14.8721L38.4216 23.14L30.2891 20.9857L32.1148 14.8721Z" fill="white"/>
<path d="M37.746 18.8185L38.42 23.14L32.1133 14.8721L37.746 18.8185Z" fill="white"/>
<path d="M39.1705 33.6613L34.764 29.2812L31.668 38.0413L39.1705 33.6613Z" fill="white"/>
<path d="M38.4211 23.1406L39.1721 33.6615L34.7656 29.2815L38.4211 23.1406Z" fill="white"/>
<path d="M41.0074 27.5479L38.4219 23.1406L39.1729 33.6615L41.0074 27.5479Z" fill="white"/>
<path d="M37.7461 18.8184L38.4201 23.1399L41.0057 27.5472L37.7461 18.8184Z" fill="white"/>
<path d="M37.7461 18.8184L38.4201 23.1399L41.0057 27.5472L37.7461 18.8184Z" fill="white"/>
<g style="mix-blend-mode:multiply" opacity="0.15">
<path d="M23.981 15.1416L19.8398 21.9365L30.2894 20.9859L23.981 15.1416Z" fill="#D3CBBD"/>
</g>
<g style="mix-blend-mode:multiply" opacity="0.3">
<path d="M26.1618 30.2104L19.8398 21.9369L30.2894 20.9863L26.1618 30.2104Z" fill="#D3CBBD"/>
</g>
<g style="mix-blend-mode:multiply" opacity="0.4">
<path d="M16.9219 30.804L19.8376 21.9365L26.1596 30.2101L16.9219 30.804Z" fill="#D3CBBD"/>
</g>
<g style="mix-blend-mode:multiply" opacity="0.4">
<path d="M34.7647 29.2815L30.2877 20.9863L26.1602 30.2104L34.7647 29.2815Z" fill="#D3CBBD"/>
</g>
<g style="mix-blend-mode:multiply" opacity="0.6">
<path d="M21.207 38.9307L26.1617 30.21L31.6702 38.0411L21.207 38.9307Z" fill="#D3CBBD"/>
</g>
<g style="mix-blend-mode:multiply" opacity="0.5">
<path d="M16.9219 30.8038L21.2049 38.9307L26.1596 30.21L16.9219 30.8038Z" fill="#D3CBBD"/>
</g>
<g style="mix-blend-mode:multiply" opacity="0.5">
<path d="M34.7647 29.2812L31.6687 38.0413L26.1602 30.2102L34.7647 29.2812Z" fill="#D3CBBD"/>
</g>
<g style="mix-blend-mode:multiply" opacity="0.6">
<path d="M11.8008 36.1054L16.9222 30.8037L21.2052 38.9306L11.8008 36.1054Z" fill="url(#paint7_linear_13089_71614)"/>
</g>
<g style="mix-blend-mode:multiply" opacity="0.8">
<path d="M10.9513 25.6133L11.8009 36.1053L7.02734 30.5447L10.9513 25.6133Z" fill="url(#paint8_linear_13089_71614)"/>
</g>
<g style="mix-blend-mode:multiply" opacity="0.7">
<path d="M16.9241 30.8036L10.9531 25.6133L11.8027 36.1053L16.9241 30.8036Z" fill="url(#paint9_linear_13089_71614)"/>
</g>
<g style="mix-blend-mode:multiply" opacity="0.9">
<path d="M8.87233 21.3857L10.9513 25.6135L7.02734 30.5449L8.87233 21.3857Z" fill="url(#paint10_linear_13089_71614)"/>
</g>
<g style="mix-blend-mode:multiply" opacity="0.5">
<path d="M15.1025 16.3691L10.9501 25.6141L8.87109 21.3863L15.1025 16.3691Z" fill="#D3CBBD"/>
</g>
<g style="mix-blend-mode:multiply" opacity="0.4">
<path d="M13.7088 15.6582L8.87109 21.3863L15.1025 16.3691L13.7088 15.6582Z" fill="#D3CBBD"/>
</g>
<g style="mix-blend-mode:multiply" opacity="0.5">
<path d="M19.8398 21.9365L10.9531 25.6137L16.9241 30.804L19.8398 21.9365Z" fill="#D3CBBD"/>
</g>
<g style="mix-blend-mode:multiply" opacity="0.4">
<path d="M15.1055 16.3691L19.8398 21.937L10.9531 25.6141L15.1055 16.3691Z" fill="#D3CBBD"/>
</g>
<g style="mix-blend-mode:multiply" opacity="0.3">
<path d="M23.9809 15.1416L15.1055 16.3687L19.8398 21.9365L23.9809 15.1416Z" fill="#D3CBBD"/>
</g>
<g style="mix-blend-mode:multiply" opacity="0.4">
<path d="M22.6737 12L15.1055 16.3688L23.9809 15.1418L22.6737 12Z" fill="#D3CBBD"/>
</g>
<g style="mix-blend-mode:multiply" opacity="0.3">
<path d="M13.7109 15.6579L22.673 12L15.1047 16.3688L13.7109 15.6579Z" fill="#D3CBBD"/>
</g>
<g style="mix-blend-mode:multiply" opacity="0.2">
<path d="M23.9791 15.1418L32.1132 14.8725L22.6719 12L23.9791 15.1418Z" fill="#D3CBBD"/>
</g>
<g style="mix-blend-mode:multiply" opacity="0.5">
<path d="M30.7903 14.1848L32.1143 14.8725L22.6914 12.0449L30.7903 14.1848Z" fill="#D3CBBD"/>
</g>
<g style="mix-blend-mode:multiply" opacity="0.3">
<path d="M38.4216 23.1407L30.2891 20.9863L34.7661 29.2815L38.4216 23.1407Z" fill="#D3CBBD"/>
</g>
<g style="mix-blend-mode:multiply" opacity="0.2">
<path d="M32.1148 14.8721L38.4216 23.14L30.2891 20.9857L32.1148 14.8721Z" fill="#D3CBBD"/>
</g>
<g style="mix-blend-mode:multiply" opacity="0.3">
<path d="M37.746 18.8185L38.42 23.14L32.1133 14.8721L37.746 18.8185Z" fill="#D3CBBD"/>
</g>
<g style="mix-blend-mode:multiply" opacity="0.6">
<path d="M39.1705 33.6613L34.764 29.2812L31.668 38.0413L39.1705 33.6613Z" fill="#D3CBBD"/>
</g>
<g style="mix-blend-mode:multiply" opacity="0.5">
<path d="M38.4211 23.1406L39.1721 33.6615L34.7656 29.2815L38.4211 23.1406Z" fill="#D3CBBD"/>
</g>
<g style="mix-blend-mode:multiply" opacity="0.6">
<path d="M41.0074 27.5479L38.4219 23.1406L39.1729 33.6615L41.0074 27.5479Z" fill="url(#paint11_linear_13089_71614)"/>
</g>
<g style="mix-blend-mode:multiply" opacity="0.5">
<path d="M37.7461 18.8184L38.4201 23.1399L41.0057 27.5472L37.7461 18.8184Z" fill="url(#paint12_linear_13089_71614)"/>
</g>
<path d="M26.2289 31.584L30.3276 37.4107L22.543 38.0735L26.2289 31.584Z" fill="url(#paint13_linear_13089_71614)"/>
<path d="M22.8099 37.6032L22.543 38.0736L30.3276 37.4108L30.0311 36.9893L22.8099 37.6032Z" fill="#FEF9F2"/>
<path d="M18.1133 31.464L24.848 31.0312L21.2358 37.3909L18.1133 31.464Z" fill="url(#paint14_linear_13089_71614)"/>
<path d="M27.4883 30.8061L33.682 30.1377L31.454 36.4421L27.4883 30.8061Z" fill="url(#paint15_linear_13089_71614)"/>
<path d="M33.5586 30.1505L31.4131 36.2208L27.5957 30.7941L27.4883 30.8061L31.454 36.4421L33.682 30.1377L33.5586 30.1505Z" fill="#FEF9F2"/>
<path d="M35.0756 30.624L37.9729 33.5037L33.0391 36.3842L35.0756 30.624Z" fill="url(#paint16_linear_13089_71614)"/>
<path d="M37.7357 33.2686L33.2058 35.9126L33.0391 36.3847L37.9729 33.5042L37.7357 33.2686Z" fill="#F6F1EC"/>
<path d="M35.6992 29.1604L37.8568 25.5361L38.3 31.7459L35.6992 29.1604Z" fill="url(#paint17_linear_13089_71614)"/>
<path d="M38.0013 31.4478L38.301 31.7459L37.8578 25.5361L37.6094 25.9529L38.0013 31.4478Z" fill="#FEF9F2"/>
<path d="M13.592 15.999L10.2852 20.0448L14.5345 16.4799L13.592 15.999Z" fill="url(#paint18_linear_13089_71614)"/>
<path d="M13.6433 16.2932L14.3366 16.6466L14.5345 16.4799L13.592 15.999L10.2852 20.0448L11.2141 19.265L13.6433 16.2932Z" fill="#FEF9F2"/>
<path d="M13.5898 15.999L13.6411 16.2932L14.3344 16.6466L14.5324 16.4799L13.5898 15.999Z" fill="#D3CBBD"/>
<path d="M14.4883 15.521L20.1346 13.1943L15.3979 15.8432L14.4883 15.521Z" fill="url(#paint19_linear_13089_71614)"/>
<path d="M18.3345 14.201L20.1346 13.1943L14.4883 15.521L14.8337 15.6436L18.3345 14.201Z" fill="#D3CBBD"/>
<path d="M33.9688 16.6982L37.2892 18.9143L37.7493 21.6457L33.9688 16.6982Z" fill="url(#paint20_linear_13089_71614)"/>
<path d="M37.1273 19.0177L37.5193 21.3452L37.7493 21.6457L37.2892 18.9143L33.9688 16.6982L34.2982 17.1294L37.1273 19.0177Z" fill="#FEF9F2"/>
<path d="M33.9688 16.6982L34.2982 17.1294L37.1273 19.0177L37.2892 18.9143L33.9688 16.6982Z" fill="#D3CBBD"/>
<path d="M21.2422 22.5469L29.1046 21.832L25.9989 28.7728L21.2422 22.5469Z" fill="url(#paint21_linear_13089_71614)"/>
<path d="M28.9956 22.0757L29.1046 21.832L21.2422 22.5469L21.4089 22.7657L28.9956 22.0757Z" fill="#D3CBBD"/>
<path d="M20.1063 23.4941L24.7396 29.5589L17.9688 29.9933L20.1063 23.4941Z" fill="url(#paint22_linear_13089_71614)"/>
<path d="M30.3544 22.6514L33.5979 28.6616L27.3633 29.3348L30.3544 22.6514Z" fill="url(#paint23_linear_13089_71614)"/>
<path d="M27.4554 29.129L27.3633 29.3349L33.5979 28.6617L33.4977 28.4766L27.4554 29.129Z" fill="#FEF9F2"/>
<path d="M9.58203 21.5051L13.8603 17.9258L10.9574 24.2774L9.58203 21.5051Z" fill="url(#paint24_linear_13089_71614)"/>
<path d="M9.88338 21.6021L13.603 18.4892L13.8603 17.9258L9.58203 21.5051L10.9574 24.2774L11.0784 24.0121L9.88338 21.6021Z" fill="#FEF9F2"/>
<path d="M9.58203 21.5051L9.88338 21.6021L13.603 18.4892L13.8603 17.9258L9.58203 21.5051Z" fill="#D3CBBD"/>
<path d="M12.3398 25.8368L18.6386 23.2305L16.5724 29.5148L12.3398 25.8368Z" fill="url(#paint25_linear_13089_71614)"/>
<path d="M12.6188 25.7207L12.3398 25.8361L16.5724 29.5141L16.6638 29.2359L12.6188 25.7207Z" fill="#FEF9F2"/>
<path d="M15.3032 17.7334L18.6237 21.6382L12.3906 24.2173L15.3032 17.7334Z" fill="url(#paint26_linear_13089_71614)"/>
<path d="M15.4514 17.9081L15.3032 17.7334L12.3906 24.2173L12.6695 24.1027L15.4514 17.9081Z" fill="#D3CBBD"/>
<path d="M31.7539 22.1328L37.2921 23.5995L34.8027 27.7816L31.7539 22.1328Z" fill="url(#paint27_linear_13089_71614)"/>
<path d="M37.027 23.5303L34.6562 27.5136L34.8013 27.7821L37.2907 23.6L37.027 23.5303Z" fill="#FEF9F2"/>
<path d="M31.2188 20.4646L32.5059 16.083L36.9741 22.062L31.2188 20.4646Z" fill="url(#paint28_linear_13089_71614)"/>
<path d="M36.482 21.9265L36.9717 22.062L32.5035 16.083L32.3945 16.4557L36.482 21.9265Z" fill="#D3CBBD"/>
<path d="M24.1429 16.2939L28.5726 20.3983L21.2344 21.0651L24.1429 16.2939Z" fill="url(#paint29_linear_13089_71614)"/>
<path d="M16.543 16.9125L22.5452 16.083L19.7448 20.677L16.543 16.9125Z" fill="url(#paint30_linear_13089_71614)"/>
<path d="M25.8047 15.8169L31.1192 15.6406L29.9266 19.6343L25.8047 15.8169Z" fill="url(#paint31_linear_13089_71614)"/>
<path d="M22.4099 12.7109L23.1649 14.6513L17.4023 15.6411L22.4099 12.7109Z" fill="url(#paint32_linear_13089_71614)"/>
<path d="M23.6523 12.7568L29.7283 14.5113L24.4698 14.5577L23.6523 12.7568Z" fill="url(#paint33_linear_13089_71614)"/>
<path d="M24.1429 16.6153L28.2569 20.4263L28.5726 20.3983L24.1429 16.2939L21.2344 21.0651L21.442 21.0467L24.1429 16.6153Z" fill="#D3CBBD"/>
<path d="M22.3312 16.4341L22.5452 16.083L16.543 16.9125L16.7874 17.2003L22.3312 16.4341Z" fill="#D3CBBD"/>
<path d="M31.0223 15.9652L31.1192 15.6406L25.8047 15.8169L26.1389 16.1263L31.0223 15.9652Z" fill="#D3CBBD"/>
<path d="M22.4099 13.0323L23.0479 14.6713L23.1649 14.6513L22.4099 12.7109L17.4023 15.6411L18.179 15.5073L22.4099 13.0323Z" fill="#D3CBBD"/>
<path d="M28.6495 14.5209L29.7283 14.5113L23.6523 12.7568L23.8199 13.1263L28.6495 14.5209Z" fill="#D3CBBD"/>
</g>
<defs>
<filter id="filter0_f_13089_71614" x="4" y="2" width="40" height="40" filterUnits="userSpaceOnUse" color-interpolation-filters="sRGB">
<feFlood flood-opacity="0" result="BackgroundImageFix"/>
<feBlend mode="normal" in="SourceGraphic" in2="BackgroundImageFix" result="shape"/>
<feGaussianBlur stdDeviation="4" result="effect1_foregroundBlur_13089_71614"/>
</filter>
<filter id="filter1_f_13089_71614" x="0" y="15" width="48" height="18" filterUnits="userSpaceOnUse" color-interpolation-filters="sRGB">
<feFlood flood-opacity="0" result="BackgroundImageFix"/>
<feBlend mode="normal" in="SourceGraphic" in2="BackgroundImageFix" result="shape"/>
<feGaussianBlur stdDeviation="1.5" result="effect1_foregroundBlur_13089_71614"/>
</filter>
<linearGradient id="paint0_linear_13089_71614" x1="45" y1="47.4" x2="3" y2="47.4" gradientUnits="userSpaceOnUse">
<stop stop-color="#D14549"/>
<stop offset="1" stop-color="#72C1BF"/>
</linearGradient>
<linearGradient id="paint1_linear_13089_71614" x1="24" y1="36.6384" x2="24" y2="-0.106119" gradientUnits="userSpaceOnUse">
<stop offset="0.15625" stop-color="#948DF2" stop-opacity="0"/>
<stop offset="1" stop-color="#ED4542"/>
</linearGradient>
<linearGradient id="paint2_linear_13089_71614" x1="24" y1="34" x2="24" y2="10" gradientUnits="userSpaceOnUse">
<stop stop-color="#A93E4D"/>
<stop offset="0.9997" stop-color="#F15A24"/>
</linearGradient>
<linearGradient id="paint3_linear_13089_71614" x1="24" y1="18" x2="24" y2="30" gradientUnits="userSpaceOnUse">
<stop stop-color="#EF4136"/>
<stop offset="1" stop-color="#EF4136" stop-opacity="0"/>
</linearGradient>
<linearGradient id="paint4_linear_13089_71614" x1="24" y1="20" x2="24" y2="28" gradientUnits="userSpaceOnUse">
<stop stop-color="#15325C"/>
<stop offset="1" stop-color="#15325C" stop-opacity="0"/>
</linearGradient>
<linearGradient id="paint5_linear_13089_71614" x1="24.0745" y1="12.1554" x2="24.0745" y2="39.1687" gradientUnits="userSpaceOnUse">
<stop stop-color="#60B8B4"/>
<stop offset="1" stop-color="#A00000"/>
</linearGradient>
<linearGradient id="paint6_linear_13089_71614" x1="24.0745" y1="12.1554" x2="24.0745" y2="39.1687" gradientUnits="userSpaceOnUse">
<stop stop-color="#60B8B4"/>
<stop offset="1" stop-color="#A00000"/>
</linearGradient>
<linearGradient id="paint7_linear_13089_71614" x1="16.503" y1="30.8037" x2="16.503" y2="38.9306" gradientUnits="userSpaceOnUse">
<stop stop-color="white"/>
<stop offset="1" stop-color="white" stop-opacity="0"/>
</linearGradient>
<linearGradient id="paint8_linear_13089_71614" x1="9.41412" y1="25.6133" x2="9.41412" y2="36.1053" gradientUnits="userSpaceOnUse">
<stop stop-color="white"/>
<stop offset="1" stop-color="white" stop-opacity="0"/>
</linearGradient>
<linearGradient id="paint9_linear_13089_71614" x1="13.9386" y1="25.6133" x2="13.9386" y2="36.1053" gradientUnits="userSpaceOnUse">
<stop stop-color="white"/>
<stop offset="1" stop-color="#8B8781" stop-opacity="0.65"/>
</linearGradient>
<linearGradient id="paint10_linear_13089_71614" x1="8.98934" y1="21.3857" x2="8.98934" y2="30.5449" gradientUnits="userSpaceOnUse">
<stop stop-color="#D3CBBD"/>
<stop offset="1" stop-color="#D3CBBD" stop-opacity="0"/>
</linearGradient>
<linearGradient id="paint11_linear_13089_71614" x1="39.7146" y1="23.1406" x2="39.7146" y2="33.6615" gradientUnits="userSpaceOnUse">
<stop stop-color="white"/>
<stop offset="1" stop-color="white" stop-opacity="0"/>
</linearGradient>
<linearGradient id="paint12_linear_13089_71614" x1="39.3759" y1="18.8184" x2="39.3759" y2="27.5472" gradientUnits="userSpaceOnUse">
<stop stop-color="white"/>
<stop offset="1" stop-color="white" stop-opacity="0"/>
</linearGradient>
<linearGradient id="paint13_linear_13089_71614" x1="40.6938" y1="26.1893" x2="10.9128" y2="46.1178" gradientUnits="userSpaceOnUse">
<stop stop-color="#6B717B"/>
<stop offset="1" stop-color="#444A54"/>
</linearGradient>
<linearGradient id="paint14_linear_13089_71614" x1="3043.23" y1="837.436" x2="631.388" y2="2546.6" gradientUnits="userSpaceOnUse">
<stop stop-color="#6B717B"/>
<stop offset="1" stop-color="#444A54"/>
</linearGradient>
<linearGradient id="paint15_linear_13089_71614" x1="3015.17" y1="1142.16" x2="688.731" y2="2671.61" gradientUnits="userSpaceOnUse">
<stop stop-color="#6B717B"/>
<stop offset="1" stop-color="#444A54"/>
</linearGradient>
<linearGradient id="paint16_linear_13089_71614" x1="2502.87" y1="1203.51" x2="505.077" y2="2348.66" gradientUnits="userSpaceOnUse">
<stop stop-color="#6B717B"/>
<stop offset="1" stop-color="#444A54"/>
</linearGradient>
<linearGradient id="paint17_linear_13089_71614" x1="1301.86" y1="1162.36" x2="4.66032" y2="1525.91" gradientUnits="userSpaceOnUse">
<stop stop-color="#6B717B"/>
<stop offset="1" stop-color="#444A54"/>
</linearGradient>
<linearGradient id="paint18_linear_13089_71614" x1="1390.19" y1="-223.473" x2="-139.974" y2="851.988" gradientUnits="userSpaceOnUse">
<stop stop-color="#6B717B"/>
<stop offset="1" stop-color="#444A54"/>
</linearGradient>
<linearGradient id="paint19_linear_13089_71614" x1="1845.77" y1="-145.128" x2="844.83" y2="1282.61" gradientUnits="userSpaceOnUse">
<stop stop-color="#6B717B"/>
<stop offset="1" stop-color="#444A54"/>
</linearGradient>
<linearGradient id="paint20_linear_13089_71614" x1="1635.7" y1="455.44" x2="23.3476" y2="1279.92" gradientUnits="userSpaceOnUse">
<stop stop-color="#6B717B"/>
<stop offset="1" stop-color="#444A54"/>
</linearGradient>
<linearGradient id="paint21_linear_13089_71614" x1="3275.1" y1="535.446" x2="588.962" y2="2571.6" gradientUnits="userSpaceOnUse">
<stop stop-color="#6B717B"/>
<stop offset="1" stop-color="#444A54"/>
</linearGradient>
<linearGradient id="paint22_linear_13089_71614" x1="2822.64" y1="508.133" x2="371.59" y2="2216.9" gradientUnits="userSpaceOnUse">
<stop stop-color="#6B717B"/>
<stop offset="1" stop-color="#444A54"/>
</linearGradient>
<linearGradient id="paint23_linear_13089_71614" x1="2808.57" y1="839.169" x2="395.018" y2="2345.73" gradientUnits="userSpaceOnUse">
<stop stop-color="#6B717B"/>
<stop offset="1" stop-color="#444A54"/>
</linearGradient>
<linearGradient id="paint24_linear_13089_71614" x1="1482.58" y1="-172.243" x2="-430.319" y2="689.98" gradientUnits="userSpaceOnUse">
<stop stop-color="#6B717B"/>
<stop offset="1" stop-color="#444A54"/>
</linearGradient>
<linearGradient id="paint25_linear_13089_71614" x1="2469.61" y1="265.365" x2="132.504" y2="1832.92" gradientUnits="userSpaceOnUse">
<stop stop-color="#6B717B"/>
<stop offset="1" stop-color="#444A54"/>
</linearGradient>
<linearGradient id="paint26_linear_13089_71614" x1="2217.14" y1="-85.166" x2="-154.534" y2="1440.52" gradientUnits="userSpaceOnUse">
<stop stop-color="#6B717B"/>
<stop offset="1" stop-color="#444A54"/>
</linearGradient>
<linearGradient id="paint27_linear_13089_71614" x1="2507.7" y1="720.545" x2="424.906" y2="2086.98" gradientUnits="userSpaceOnUse">
<stop stop-color="#6B717B"/>
<stop offset="1" stop-color="#444A54"/>
</linearGradient>
<linearGradient id="paint28_linear_13089_71614" x1="35.5643" y1="18.5211" x2="5.78411" y2="38.4496" gradientUnits="userSpaceOnUse">
<stop stop-color="#787E88"/>
<stop offset="1" stop-color="#515761"/>
</linearGradient>
<linearGradient id="paint29_linear_13089_71614" x1="2826.28" y1="144.018" x2="909.303" y2="2117.06" gradientUnits="userSpaceOnUse">
<stop stop-color="#6B717B"/>
<stop offset="1" stop-color="#444A54"/>
</linearGradient>
<linearGradient id="paint30_linear_13089_71614" x1="2136.1" y1="-60.8209" x2="306.036" y2="1539.16" gradientUnits="userSpaceOnUse">
<stop stop-color="#6B717B"/>
<stop offset="1" stop-color="#444A54"/>
</linearGradient>
<linearGradient id="paint31_linear_13089_71614" x1="2069.14" y1="135.852" x2="474.533" y2="1555.82" gradientUnits="userSpaceOnUse">
<stop stop-color="#787E88"/>
<stop offset="1" stop-color="#515761"/>
</linearGradient>
<linearGradient id="paint32_linear_13089_71614" x1="1978.69" y1="-92.3065" x2="843.933" y2="1401.03" gradientUnits="userSpaceOnUse">
<stop stop-color="#6B717B"/>
<stop offset="1" stop-color="#444A54"/>
</linearGradient>
<linearGradient id="paint33_linear_13089_71614" x1="2188.87" y1="-8.70992" x2="1652.8" y2="1201.6" gradientUnits="userSpaceOnUse">
<stop stop-color="#6B717B"/>
<stop offset="1" stop-color="#444A54"/>
</linearGradient>
</defs>
</svg>
