<svg width="1440" height="4655" viewBox="0 0 1440 4655" fill="none" xmlns="http://www.w3.org/2000/svg">
<g clip-path="url(#clip0)">
<rect width="1440" height="4655" fill="white"/>
<rect x="-95" width="1630" height="4655" fill="white"/>
<rect x="-95" width="1630" height="4655" fill="url(#paint0_linear)" fill-opacity="0.9"/>
<g style="mix-blend-mode:hard-light" opacity="0.2" filter="url(#filter0_f)">
<path d="M-95 81H-41.5427C-21.4963 98.2997 20.9354 132.416 30.2904 130.485C39.6454 128.554 57.9471 143.762 65.9286 151.607C85.2326 168.303 124.843 201.454 128.852 200.488C130.084 200.192 133.976 200.223 139.641 200.269C157.018 200.41 191.081 200.687 216.277 192.04C249.688 180.574 266.95 185.402 278.087 192.04C289.224 198.678 349.92 229.455 360.5 227.041C364.049 226.232 374.49 226.916 387.221 227.75C412.442 229.403 446.649 231.644 454.05 224.024C465.187 212.558 658.97 204.713 677.346 214.368C692.047 222.093 711.462 222.214 720 222.214C728.538 222.214 747.953 222.093 762.654 214.368C781.03 204.713 974.812 212.558 985.949 224.024C993.351 231.644 1027.56 229.403 1052.78 227.75C1065.51 226.916 1075.95 226.232 1079.5 227.041C1090.08 229.455 1150.78 198.678 1161.91 192.04C1173.05 185.402 1190.31 180.574 1223.72 192.04C1248.92 200.687 1282.98 200.41 1300.36 200.269C1306.02 200.223 1309.92 200.192 1311.15 200.488C1315.16 201.454 1354.77 168.303 1374.07 151.607C1382.05 143.762 1400.35 128.554 1409.71 130.485C1419.06 132.416 1461.5 98.2997 1481.54 81H1535V5699H-95V81Z" fill="url(#paint1_linear)"/>
</g>
<g style="mix-blend-mode:hard-light" opacity="0.2" filter="url(#filter1_b)">
<path d="M-94.4432 513.757L-95 340.635C-79.1818 340.214 -58.0175 340.376 -39.8412 340.516C-31.7833 340.577 -24.3126 340.635 -18.1552 340.635C0.777557 340.635 41.9842 351.569 77.0655 371.007C80.0141 371.713 82.7676 372.389 85.3812 373.03C103.005 377.355 114.269 380.119 136.091 380.119L288.11 383.156C290.709 382.751 297.02 380.604 301.475 375.259C305.929 369.913 317.066 360.882 322.078 357.035C325.605 354.808 335.665 350.353 347.693 350.353C357.225 350.353 369.218 351.086 377.998 351.622C383.067 351.932 387.065 352.176 388.899 352.176C393.911 352.176 406.162 349.138 410.616 344.279C414.18 340.391 449.967 297.303 467.415 276.245C473.54 269.36 489.8 256.928 505.837 262.274C525.884 268.955 581.011 268.955 589.921 262.274C598.831 255.592 619.434 244.051 639.48 247.696C641.661 248.092 644.286 248.57 647.239 249.108C671.427 253.515 717.519 261.913 720 261.913C722.481 261.913 768.573 253.515 792.761 249.108C795.714 248.57 798.339 248.092 800.52 247.696C820.566 244.051 841.169 255.592 850.079 262.274C858.989 268.955 914.116 268.955 934.163 262.274C950.2 256.928 966.46 269.36 972.585 276.245C990.033 297.303 1025.82 340.391 1029.38 344.279C1033.84 349.138 1046.09 352.176 1051.1 352.176C1052.93 352.176 1056.93 351.932 1062 351.622C1070.78 351.086 1082.78 350.353 1092.31 350.353C1104.34 350.353 1114.4 354.808 1117.92 357.035C1122.93 360.882 1134.07 369.913 1138.53 375.259C1142.98 380.604 1149.29 382.751 1151.89 383.156L1303.91 380.119C1325.73 380.119 1336.99 377.355 1354.62 373.03C1357.23 372.389 1359.99 371.713 1362.93 371.007C1398.02 351.569 1439.22 340.635 1458.16 340.635C1464.31 340.635 1471.78 340.577 1479.84 340.516C1498.02 340.376 1519.18 340.214 1535 340.635L1534.44 513.757L1535 5735H-95L-94.4432 513.757Z" fill="url(#paint2_linear)"/>
</g>
<g style="mix-blend-mode:hard-light" opacity="0.2" filter="url(#filter2_b)">
<path d="M-94.4432 564.916L-95 459.824C-83.4012 458.344 -70.3203 456.725 -56.3558 454.996C23.3155 445.133 131.749 431.709 157.808 420.338C174.83 417.587 251.452 426.321 319.591 434.089C371.82 440.042 419.065 445.428 430.663 444.637C438.9 444.075 458.907 436.012 485.925 425.125C546.58 400.681 642.565 362 720 362C797.435 362 893.42 400.681 954.075 425.125C981.093 436.012 1001.1 444.075 1009.34 444.637C1020.94 445.428 1068.18 440.042 1120.41 434.089C1188.55 426.321 1265.17 417.587 1282.19 420.338C1308.25 431.709 1416.68 445.133 1496.36 454.996C1510.32 456.725 1523.4 458.344 1535 459.824L1534.44 564.916L1535 5694H-95L-94.4432 564.916Z" fill="url(#paint3_linear)"/>
</g>
<g style="mix-blend-mode:hard-light" opacity="0.2" filter="url(#filter3_f)">
<path d="M-95 474.713C-74.9535 467.22 -31.8536 452.843 -22.0531 455.273C-9.80252 458.311 30.2904 476.535 41.9842 492.33C53.678 508.124 75.3046 507.008 77.0655 505.087C78.736 503.265 93.7709 492.127 101.567 486.862C106.207 484.432 118.384 481.03 129.966 486.862C141.548 492.694 209.409 526.552 241.892 542.751C246.161 545.181 255.034 550.041 256.37 550.041C256.615 550.041 257.181 550.093 257.983 550.167C262.657 550.596 275.317 551.76 278.644 547.611C281.762 543.723 299.247 530.197 307.6 523.919C313.725 519.869 328.537 511.769 338.783 511.769C349.029 511.769 421.382 515.819 456.278 517.844C476.51 517.439 518.088 516.508 522.542 516.022C525.854 515.66 557.031 517.663 583.224 519.345C601.072 520.491 616.606 521.489 619.434 521.489C622.857 521.489 633.093 514.341 646.164 505.215C669.243 489.1 701.158 466.815 720 466.815C738.842 466.815 770.757 489.1 793.836 505.215C806.907 514.341 817.143 521.489 820.566 521.489C823.394 521.489 838.928 520.491 856.776 519.345C882.969 517.663 914.146 515.66 917.458 516.022C921.912 516.508 963.49 517.439 983.722 517.844C1018.62 515.819 1090.97 511.769 1101.22 511.769C1111.46 511.769 1126.27 519.869 1132.4 523.919C1140.75 530.197 1158.24 543.723 1161.36 547.611C1164.68 551.76 1177.34 550.596 1182.02 550.167C1182.82 550.093 1183.39 550.041 1183.63 550.041C1184.97 550.041 1193.84 545.181 1198.11 542.751C1230.59 526.552 1298.45 492.694 1310.03 486.862C1321.62 481.03 1333.79 484.432 1338.43 486.862C1346.23 492.127 1361.26 503.265 1362.93 505.087C1364.7 507.008 1386.32 508.124 1398.02 492.33C1409.71 476.535 1449.8 458.311 1462.05 455.273C1471.85 452.843 1514.95 467.22 1535 474.713V5633H-95V474.713Z" fill="url(#paint4_linear)"/>
</g>
<g style="mix-blend-mode:hard-light" opacity="0.2" filter="url(#filter4_f)">
<path d="M-48.7082 749.921C-44.5423 750.554 -40.9302 751.102 -38.2017 751.102C-34.8768 751.102 -32.6091 748.668 -30.2117 746.094C-27.3895 743.063 -24.3874 739.84 -19.2689 740.168C-11.6958 740.654 56.2766 740.371 89.3161 740.168L101.01 742.597L154.467 778.437L160.592 789.371L195.117 792.408L230.755 805.165C243.748 808.607 270.959 815.248 275.86 814.276C278.968 813.66 288.245 806.784 297.502 799.923C306.484 793.266 315.446 786.624 318.737 785.726C325.419 783.904 346.022 774.185 349.363 771.148C349.667 770.872 350.104 770.455 350.656 769.929C356.186 764.659 373.307 748.342 384.445 751.102C389.517 752.36 394.495 755.18 399.337 757.923C406.189 761.805 412.77 765.533 418.969 764.466C426.043 763.247 448.304 744.104 463.112 731.37C470.451 725.06 475.959 720.323 476.881 720.122C479.109 719.636 515.304 681.043 533.123 661.807C539.062 655.53 556.733 646.986 575.443 655.733C594.153 664.48 621.476 664.844 633.355 664.844L701.29 670.918L720 670.86L738.71 670.918L806.645 664.844C818.524 664.844 845.847 664.48 864.557 655.733C883.267 646.986 900.938 655.53 906.877 661.807C924.696 681.043 960.891 719.636 963.119 720.122C964.041 720.323 969.549 725.06 976.888 731.37C991.696 744.104 1013.96 763.247 1021.03 764.466C1027.23 765.533 1033.81 761.805 1040.66 757.923C1045.51 755.18 1050.48 752.36 1055.56 751.102C1066.69 748.342 1083.81 764.659 1089.34 769.929C1089.9 770.455 1090.33 770.872 1090.64 771.148C1093.98 774.185 1114.58 783.904 1121.26 785.726C1124.55 786.624 1133.52 793.266 1142.5 799.923C1151.75 806.784 1161.03 813.66 1164.14 814.276C1169.04 815.248 1196.25 808.607 1209.24 805.165L1244.88 792.408L1279.41 789.371L1285.53 778.437L1338.99 742.597L1350.68 740.168C1383.72 740.371 1451.7 740.654 1459.27 740.168C1464.39 739.84 1467.39 743.063 1470.21 746.094C1472.61 748.668 1474.88 751.102 1478.2 751.102C1480.93 751.102 1484.54 750.554 1488.71 749.921C1502.07 747.89 1521.13 744.994 1535 756.571V5699H-95V756.571C-81.1327 744.994 -62.0716 747.89 -48.7082 749.921Z" fill="url(#paint5_linear)" fill-opacity="0.55"/>
</g>
<ellipse opacity="0.2" cx="720.5" cy="532.5" rx="1003.5" ry="1123.5" transform="rotate(-90 720.5 532.5)" fill="url(#paint6_radial)"/>
</g>
<defs>
<filter id="filter0_f" x="-102" y="74" width="1644" height="5632" filterUnits="userSpaceOnUse" color-interpolation-filters="sRGB">
<feFlood flood-opacity="0" result="BackgroundImageFix"/>
<feBlend mode="normal" in="SourceGraphic" in2="BackgroundImageFix" result="shape"/>
<feGaussianBlur stdDeviation="3.5" result="effect1_foregroundBlur"/>
</filter>
<filter id="filter1_b" x="-103" y="239" width="1646" height="5504" filterUnits="userSpaceOnUse" color-interpolation-filters="sRGB">
<feFlood flood-opacity="0" result="BackgroundImageFix"/>
<feGaussianBlur in="BackgroundImage" stdDeviation="4"/>
<feComposite in2="SourceAlpha" operator="in" result="effect1_backgroundBlur"/>
<feBlend mode="normal" in="SourceGraphic" in2="effect1_backgroundBlur" result="shape"/>
</filter>
<filter id="filter2_b" x="-98" y="359" width="1636" height="5338" filterUnits="userSpaceOnUse" color-interpolation-filters="sRGB">
<feFlood flood-opacity="0" result="BackgroundImageFix"/>
<feGaussianBlur in="BackgroundImage" stdDeviation="1.5"/>
<feComposite in2="SourceAlpha" operator="in" result="effect1_backgroundBlur"/>
<feBlend mode="normal" in="SourceGraphic" in2="effect1_backgroundBlur" result="shape"/>
</filter>
<filter id="filter3_f" x="-98.5" y="451.5" width="1637" height="5185" filterUnits="userSpaceOnUse" color-interpolation-filters="sRGB">
<feFlood flood-opacity="0" result="BackgroundImageFix"/>
<feBlend mode="normal" in="SourceGraphic" in2="BackgroundImageFix" result="shape"/>
<feGaussianBlur stdDeviation="1.75" result="effect1_foregroundBlur"/>
</filter>
<filter id="filter4_f" x="-97" y="650" width="1634" height="5051" filterUnits="userSpaceOnUse" color-interpolation-filters="sRGB">
<feFlood flood-opacity="0" result="BackgroundImageFix"/>
<feBlend mode="normal" in="SourceGraphic" in2="BackgroundImageFix" result="shape"/>
<feGaussianBlur stdDeviation="1" result="effect1_foregroundBlur"/>
</filter>
<linearGradient id="paint0_linear" x1="709.247" y1="-90.5139" x2="709.247" y2="4655" gradientUnits="userSpaceOnUse">
<stop stop-color="#EB9E49"/>
<stop offset="0.078125" stop-color="#CD4E59"/>
<stop offset="0.151042" stop-color="#6E3D6E"/>
<stop offset="0.437386" stop-color="#582B3F"/>
<stop offset="0.750045" stop-color="#46172C"/>
</linearGradient>
<linearGradient id="paint1_linear" x1="718.886" y1="234.273" x2="719.05" y2="554.095" gradientUnits="userSpaceOnUse">
<stop stop-color="#202020"/>
<stop offset="1" stop-color="#807575"/>
</linearGradient>
<linearGradient id="paint2_linear" x1="720" y1="331.517" x2="720.166" y2="784.035" gradientUnits="userSpaceOnUse">
<stop stop-color="#610409" stop-opacity="0.35"/>
<stop offset="0.40625" stop-color="#524C4C"/>
</linearGradient>
<linearGradient id="paint3_linear" x1="720.557" y1="362" x2="720.557" y2="816.963" gradientUnits="userSpaceOnUse">
<stop stop-color="#5A0013" stop-opacity="0.54"/>
<stop offset="1" stop-color="#AEAEAE"/>
</linearGradient>
<linearGradient id="paint4_linear" x1="720.556" y1="455" x2="720.556" y2="5633" gradientUnits="userSpaceOnUse">
<stop stop-color="#2B0109" stop-opacity="0.37"/>
<stop offset="0.25" stop-color="#610D32"/>
<stop offset="1" stop-color="#610D32"/>
</linearGradient>
<linearGradient id="paint5_linear" x1="720" y1="621.113" x2="720" y2="5830.2" gradientUnits="userSpaceOnUse">
<stop stop-color="#545454" stop-opacity="0.08"/>
<stop offset="0.0001" stop-color="#390013"/>
<stop offset="1" stop-color="#582B3F"/>
</linearGradient>
<radialGradient id="paint6_radial" cx="0" cy="0" r="1" gradientUnits="userSpaceOnUse" gradientTransform="translate(720.5 636.394) rotate(90) scale(1019.61 910.703)">
<stop stop-color="#C85658"/>
<stop offset="1" stop-color="#FF0707" stop-opacity="0"/>
</radialGradient>
<clipPath id="clip0">
<rect width="1440" height="4655" fill="white"/>
</clipPath>
</defs>
</svg>
