<?xml version="1.0" standalone="no"?>
<!DOCTYPE svg PUBLIC "-//W3C//DTD SVG 20010904//EN"
 "http://www.w3.org/TR/2001/REC-SVG-20010904/DTD/svg10.dtd">
<svg version="1.0" xmlns="http://www.w3.org/2000/svg"
 width="700.000000pt" height="700.000000pt" viewBox="0 0 700.000000 700.000000"
 preserveAspectRatio="xMidYMid meet">
<metadata>
Created by potrace 1.14, written by Peter Selinger 2001-2017
</metadata>
<g transform="translate(0.000000,700.000000) scale(0.100000,-0.100000)"
fill="#000000" stroke="none">
<path d="M3405 6875 c-44 -12 -642 -268 -654 -280 -2 -3 158 -5 357 -5 l362 0
0 150 c0 83 -3 150 -7 149 -5 0 -30 -6 -58 -14z"/>
<path d="M3530 6739 l0 -149 363 0 c209 0 356 4 347 9 -53 31 -642 279 -672
284 l-38 6 0 -150z"/>
<path d="M3865 6832 c10 -9 519 -232 529 -232 7 0 99 130 95 134 -2 2 -139 25
-304 51 -165 25 -307 48 -315 51 -9 3 -11 2 -5 -4z"/>
<path d="M2795 6783 c-154 -25 -282 -47 -284 -49 -4 -4 88 -134 95 -134 4 0
351 150 499 216 l30 13 -30 0 c-16 -1 -156 -21 -310 -46z"/>
<path d="M2148 6573 c-158 -81 -285 -149 -284 -151 5 -4 660 150 668 157 7 6
-81 141 -92 141 -3 0 -134 -67 -292 -147z"/>
<path d="M4511 6656 c-25 -35 -44 -67 -43 -72 1 -8 649 -165 665 -161 7 2
-564 297 -574 297 -2 0 -24 -29 -48 -64z"/>
<path d="M2797 6325 c80 -113 148 -205 152 -205 8 0 461 398 461 405 0 3 -171
5 -379 5 l-380 0 146 -205z"/>
<path d="M3811 6325 c128 -113 236 -205 239 -205 7 0 290 394 290 404 0 3
-171 6 -380 6 l-381 0 232 -205z"/>
<path d="M3261 6312 l-234 -207 237 -3 c130 -1 342 -1 473 0 l236 3 -233 205
c-128 113 -235 206 -239 207 -3 1 -111 -91 -240 -205z"/>
<path d="M2246 6208 c-185 -167 -332 -304 -326 -306 11 -4 927 175 952 186 14
6 -9 43 -130 214 -81 114 -150 208 -154 208 -4 0 -158 -136 -342 -302z"/>
<path d="M4258 6302 c-121 -171 -144 -208 -130 -214 24 -10 943 -189 953 -186
9 3 -643 596 -664 603 -7 3 -76 -86 -159 -203z"/>
<path d="M2040 6401 c-405 -97 -500 -124 -500 -143 0 -10 247 -355 260 -363 5
-3 534 466 679 601 12 11 -67 -6 -439 -95z"/>
<path d="M4521 6496 c174 -161 674 -604 679 -601 13 8 260 353 260 363 0 20
-92 46 -503 143 -394 93 -446 105 -436 95z"/>
<path d="M1448 6182 c-33 -33 -490 -773 -483 -780 4 -4 755 426 773 443 11 10
-10 45 -113 186 -70 96 -130 177 -134 181 -4 5 -23 -9 -43 -30z"/>
<path d="M5381 6039 c-107 -147 -130 -184 -119 -194 18 -16 769 -447 773 -443
7 8 -451 747 -484 781 l-38 39 -132 -183z"/>
<path d="M3022 6008 c14 -18 124 -174 247 -345 122 -172 226 -313 231 -313 5
0 109 141 231 313 122 171 233 327 247 345 l24 32 -502 0 -502 0 24 -32z"/>
<path d="M2350 5924 c-261 -52 -481 -97 -487 -99 -11 -4 355 -524 407 -578 17
-18 24 -10 185 210 430 582 416 563 392 562 -12 -1 -236 -44 -497 -95z"/>
<path d="M4213 5908 c45 -62 177 -241 291 -396 200 -272 209 -283 226 -265 51
54 418 574 407 578 -22 8 -975 195 -991 195 -11 0 12 -38 67 -112z"/>
<path d="M2643 5613 c-161 -219 -291 -399 -289 -400 4 -5 1078 96 1083 101 6
6 -486 696 -495 696 -4 0 -139 -179 -299 -397z"/>
<path d="M3805 5665 c-136 -191 -245 -348 -243 -351 5 -5 1080 -105 1084 -101
5 4 -576 791 -586 795 -5 2 -119 -153 -255 -343z"/>
<path d="M995 5730 l-229 -229 38 -55 c37 -54 64 -83 70 -75 1 2 76 126 166
274 90 149 170 280 178 293 8 12 13 22 11 22 -2 0 -107 -103 -234 -230z"/>
<path d="M5782 5940 c8 -14 90 -150 183 -302 l168 -278 48 65 c27 35 49 68 49
72 0 5 -104 112 -232 238 -127 127 -225 219 -216 205z"/>
<path d="M1546 5334 c-136 -245 -246 -447 -244 -449 5 -5 910 294 921 305 8 7
-409 590 -422 590 -3 0 -118 -201 -255 -446z"/>
<path d="M4981 5489 c-116 -159 -211 -293 -211 -297 1 -8 922 -313 928 -307 5
5 -491 895 -499 895 -4 0 -101 -131 -218 -291z"/>
<path d="M1313 5531 c-216 -124 -393 -230 -393 -234 0 -4 68 -100 152 -212
130 -176 153 -202 163 -187 28 42 477 853 474 856 -2 1 -181 -99 -396 -223z"/>
<path d="M5294 5743 c8 -19 452 -816 471 -845 10 -16 32 9 163 186 84 113 152
208 152 213 0 4 -80 54 -178 109 -97 56 -275 159 -396 228 -136 79 -216 120
-212 109z"/>
<path d="M583 5158 c-78 -155 -141 -283 -140 -284 1 -1 52 55 113 125 61 69
148 168 194 218 l82 93 -48 65 c-26 36 -50 65 -53 65 -3 0 -70 -127 -148 -282z"/>
<path d="M6216 5375 l-48 -65 139 -157 c76 -86 163 -184 193 -219 30 -34 56
-61 57 -60 4 4 -282 566 -288 566 -3 0 -27 -29 -53 -65z"/>
<path d="M2868 5200 c-278 -26 -511 -49 -517 -51 -9 -4 567 -808 579 -809 5 0
501 879 508 900 5 14 -6 13 -570 -40z"/>
<path d="M3562 5240 c10 -29 504 -899 509 -897 9 3 588 801 585 805 -3 3
-1047 102 -1079 102 -10 0 -17 -4 -15 -10z"/>
<path d="M877 5233 c-4 -8 -166 -501 -213 -651 l-23 -74 22 15 c12 7 128 76
257 152 129 76 241 144 249 150 11 11 -11 46 -130 206 -167 228 -155 213 -162
202z"/>
<path d="M5967 5038 c-84 -112 -145 -204 -140 -209 17 -17 516 -309 521 -305
5 5 -217 697 -227 708 -3 3 -73 -84 -154 -194z"/>
<path d="M3243 4771 c-139 -248 -253 -452 -253 -455 0 -3 230 -6 510 -6 281 0
510 3 510 6 0 9 -505 904 -510 904 -3 0 -119 -202 -257 -449z"/>
<path d="M555 4910 c-198 -224 -276 -324 -263 -335 2 -1 65 -23 140 -48 l138
-45 111 340 c61 187 109 341 107 343 -2 2 -107 -113 -233 -255z"/>
<path d="M6210 5165 c0 -5 50 -161 110 -346 l110 -337 138 45 c75 25 138 47
140 48 14 11 -69 117 -263 335 -264 296 -235 265 -235 255z"/>
<path d="M1745 4965 c-258 -86 -459 -158 -458 -164 2 -8 477 -655 499 -680 2
-2 6 -2 9 1 16 16 431 998 422 997 -7 -1 -219 -70 -472 -154z"/>
<path d="M4804 5043 c19 -43 116 -269 216 -503 100 -234 183 -426 184 -427 1
-2 118 153 259 344 142 191 254 350 250 354 -8 6 -925 309 -937 309 -3 0 10
-35 28 -77z"/>
<path d="M2286 5101 c-11 -17 -436 -1005 -433 -1007 3 -3 1017 203 1022 208 3
2 -562 788 -580 806 -2 2 -6 -1 -9 -7z"/>
<path d="M4413 4707 c-160 -221 -290 -403 -288 -406 4 -3 1019 -210 1022 -207
3 2 -428 1000 -435 1008 -4 4 -139 -174 -299 -395z"/>
<path d="M896 4595 c-142 -85 -261 -156 -264 -159 -6 -6 239 -576 247 -576 5
0 278 830 289 876 2 8 0 14 -5 13 -4 0 -124 -70 -267 -154z"/>
<path d="M1083 4283 c-84 -257 -151 -469 -150 -470 4 -4 801 248 809 255 6 7
-483 674 -499 679 -5 2 -77 -207 -160 -464z"/>
<path d="M5504 4414 c-137 -185 -249 -339 -249 -342 0 -7 806 -264 811 -259 5
5 -301 937 -307 937 -3 0 -118 -151 -255 -336z"/>
<path d="M5832 4733 c21 -75 284 -873 289 -873 7 0 253 570 247 575 -8 8 -528
315 -534 315 -4 0 -4 -8 -2 -17z"/>
<path d="M266 4503 c-11 -28 -5 -131 24 -428 17 -165 30 -307 30 -314 0 -9 3
-11 9 -5 12 13 224 665 217 671 -2 3 -65 24 -140 48 -111 35 -136 40 -140 28z"/>
<path d="M6591 4473 c-73 -23 -136 -44 -138 -47 -6 -5 206 -658 218 -670 6 -6
9 -2 9 10 0 10 14 154 30 319 30 305 36 402 22 421 -5 7 -51 -4 -141 -33z"/>
<path d="M6282 4074 c-68 -157 -121 -288 -118 -291 7 -8 470 -152 474 -148 4
3 -215 689 -227 712 -4 7 -62 -116 -129 -273z"/>
<path d="M588 4343 c-11 -18 -230 -705 -226 -708 4 -4 467 141 475 148 5 5
-224 544 -238 560 -4 5 -9 5 -11 0z"/>
<path d="M3000 4244 c0 -11 492 -684 500 -684 8 0 500 673 500 684 0 3 -225 6
-500 6 -275 0 -500 -3 -500 -6z"/>
<path d="M2367 4137 c-329 -66 -497 -104 -495 -112 5 -19 693 -763 699 -756 4
3 66 191 139 416 184 568 180 555 167 554 -7 -1 -236 -46 -510 -102z"/>
<path d="M4124 4199 c54 -176 300 -925 305 -930 7 -7 694 737 699 756 2 8
-155 43 -485 109 -268 54 -498 100 -510 103 -22 5 -22 4 -9 -38z"/>
<path d="M2830 3869 c-61 -189 -131 -404 -155 -478 -25 -74 -43 -136 -42 -138
3 -3 809 256 815 262 4 3 -470 658 -493 684 -11 11 -33 -48 -125 -330z"/>
<path d="M3800 3864 c-138 -190 -250 -347 -248 -349 6 -5 812 -265 814 -262 4
3 -303 947 -309 953 -3 3 -118 -151 -257 -342z"/>
<path d="M166 3874 c-27 -168 -46 -307 -43 -311 7 -6 144 34 150 45 5 8 -48
561 -55 567 -2 2 -26 -133 -52 -301z"/>
<path d="M6776 4150 c-3 -19 -15 -134 -26 -255 -11 -121 -23 -236 -26 -256
l-5 -35 75 -24 c42 -13 79 -21 82 -17 5 5 -79 576 -90 612 -2 6 -6 -6 -10 -25z"/>
<path d="M1346 3879 c-225 -71 -410 -130 -412 -131 -1 -2 19 -32 45 -68 27
-36 158 -218 292 -404 198 -277 244 -336 250 -320 10 23 240 1046 237 1049 -2
2 -187 -55 -412 -126z"/>
<path d="M5243 3987 c3 -12 56 -245 117 -517 61 -272 114 -504 118 -514 7 -16
61 54 299 385 159 222 289 405 289 406 -1 1 -175 57 -387 123 -211 66 -397
125 -413 130 -26 9 -28 8 -23 -13z"/>
<path d="M1694 3448 c-66 -293 -117 -534 -113 -536 3 -1 215 65 470 148 255
83 468 151 472 153 9 3 -691 767 -702 767 -4 0 -61 -240 -127 -532z"/>
<path d="M4844 3623 c-345 -375 -369 -401 -362 -409 8 -7 930 -305 937 -302 9
4 -231 1068 -240 1068 -3 0 -154 -161 -335 -357z"/>
<path d="M590 3643 c-129 -41 -236 -76 -237 -77 -3 -3 348 -791 365 -822 14
-24 12 -32 72 476 27 234 52 442 56 463 4 27 2 37 -8 36 -7 -1 -119 -35 -248
-76z"/>
<path d="M6154 3684 c3 -22 28 -230 56 -464 27 -234 52 -441 56 -460 5 -31 7
-32 17 -15 17 31 367 818 364 820 -2 2 -423 134 -481 152 -16 4 -17 1 -12 -33z"/>
<path d="M900 3669 c0 -8 -27 -240 -60 -514 -32 -275 -58 -501 -56 -502 3 -4
687 216 695 223 4 3 -539 767 -565 794 -12 12 -14 12 -14 -1z"/>
<path d="M5810 3288 c-157 -219 -286 -401 -288 -406 -2 -7 687 -236 694 -229
3 2 -110 968 -119 1017 -1 8 -130 -164 -287 -382z"/>
<path d="M188 3516 c-37 -12 -70 -25 -73 -28 -5 -5 90 -629 99 -653 3 -5 5 1
5 14 1 30 49 604 55 654 5 43 5 43 -86 13z"/>
<path d="M6726 3503 c5 -43 54 -627 55 -658 0 -11 2 -15 5 -10 7 18 105 647
101 651 -5 5 -148 54 -158 54 -4 0 -5 -17 -3 -37z"/>
<path d="M3058 3327 c-219 -72 -398 -134 -398 -138 0 -7 782 -579 802 -587 4
-2 8 190 8 427 0 237 -3 431 -7 430 -5 -1 -187 -60 -405 -132z"/>
<path d="M3530 3029 c0 -236 2 -429 5 -429 3 0 537 386 764 553 l53 39 -363
119 c-200 66 -385 126 -411 133 l-48 15 0 -430z"/>
<path d="M326 3428 c-9 -44 -66 -784 -66 -853 0 -38 4 -75 8 -81 5 -7 73 10
215 56 114 37 211 70 214 74 5 5 -355 826 -363 826 -2 0 -6 -10 -8 -22z"/>
<path d="M6480 3040 c-100 -226 -180 -413 -177 -416 3 -4 100 -37 214 -74 142
-46 210 -63 215 -56 4 6 8 45 8 86 -1 88 -64 858 -72 865 -3 3 -88 -179 -188
-405z"/>
<path d="M2070 3006 c-256 -84 -465 -156 -465 -161 1 -11 814 -729 820 -724 2
2 28 222 59 489 31 267 58 500 61 518 3 17 2 32 -2 31 -4 0 -217 -69 -473
-153z"/>
<path d="M4454 3123 c3 -21 31 -254 61 -517 31 -264 57 -482 60 -484 6 -6 819
712 818 723 -1 7 -917 314 -941 315 -2 0 -1 -17 2 -37z"/>
<path d="M2545 2630 c-32 -280 -56 -512 -53 -515 5 -6 923 409 940 424 6 6
-794 593 -817 599 -7 2 -31 -175 -70 -508z"/>
<path d="M3968 2842 c-224 -163 -404 -300 -400 -303 16 -15 934 -430 939 -425
10 10 -111 1026 -122 1025 -5 0 -193 -134 -417 -297z"/>
<path d="M1152 2707 c-189 -62 -343 -116 -343 -120 0 -4 157 -177 348 -384
l348 -376 2 289 c2 159 0 382 -5 496 l-7 206 -343 -111z"/>
<path d="M5495 2617 c-3 -111 -5 -334 -3 -495 l3 -294 348 376 c191 206 348
379 348 383 1 6 -442 156 -642 217 l-47 14 -7 -201z"/>
<path d="M1561 2498 c1 -161 5 -386 8 -499 l6 -206 409 137 409 136 -404 355
c-222 195 -410 358 -416 362 -10 7 -13 -53 -12 -285z"/>
<path d="M5020 2429 l-412 -362 409 -139 c224 -76 409 -138 409 -138 5 0 16
992 11 996 -2 3 -190 -158 -417 -357z"/>
<path d="M495 2494 c-110 -37 -202 -68 -204 -70 -13 -12 82 -133 323 -413 152
-176 282 -323 288 -327 7 -5 9 1 5 17 -3 13 -45 212 -93 442 -70 329 -92 417
-104 417 -8 0 -105 -30 -215 -66z"/>
<path d="M6181 2124 c-50 -240 -90 -438 -87 -441 7 -8 575 656 597 699 11 22
19 41 17 43 -7 6 -407 135 -420 135 -11 0 -37 -108 -107 -436z"/>
<path d="M802 2480 c21 -115 183 -867 189 -874 7 -8 465 138 483 154 4 5 -137
165 -314 357 -402 433 -363 394 -358 363z"/>
<path d="M5856 2134 c-186 -201 -334 -369 -330 -374 15 -13 475 -162 481 -156
7 7 193 877 190 888 -1 4 -154 -158 -341 -358z"/>
<path d="M2993 2272 c-260 -119 -473 -219 -473 -222 1 -8 941 -563 946 -558 2
3 3 228 2 500 l-3 495 -472 -215z"/>
<path d="M3530 1990 c0 -275 3 -500 6 -500 10 0 943 554 944 560 0 4 -803 376
-922 427 l-28 12 0 -499z"/>
<path d="M451 2105 c6 -15 291 -579 295 -584 6 -6 154 41 160 51 3 4 -95 124
-217 265 -245 284 -243 282 -238 268z"/>
<path d="M6316 1843 c-125 -146 -224 -268 -220 -273 16 -14 143 -52 154 -45 9
6 301 577 297 581 -1 1 -105 -117 -231 -263z"/>
<path d="M2008 1877 c-212 -73 -389 -135 -392 -138 -4 -3 172 -135 390 -293
217 -158 397 -286 399 -284 2 2 7 194 11 426 6 360 5 422 -7 421 -8 0 -188
-59 -401 -132z"/>
<path d="M4583 1589 c3 -232 8 -423 11 -426 2 -3 183 125 400 283 218 158 393
291 389 294 -9 7 -785 270 -798 270 -5 0 -5 -190 -2 -421z"/>
<path d="M2477 1798 c-9 -274 -9 -658 1 -658 14 -1 942 295 942 300 0 4 -622
376 -901 539 l-36 21 -6 -202z"/>
<path d="M4048 1722 c-258 -152 -468 -279 -468 -282 0 -5 929 -301 943 -300 8
0 7 355 -2 657 l-6 203 -467 -278z"/>
<path d="M1278 1632 c-126 -42 -229 -81 -230 -87 -1 -10 594 -447 600 -440 2
2 -26 136 -62 299 -36 163 -66 298 -66 301 0 8 -6 7 -242 -73z"/>
<path d="M5477 1688 c-27 -108 -127 -573 -125 -579 4 -9 600 422 602 435 1 7
-247 95 -455 161 -11 4 -19 -2 -22 -17z"/>
<path d="M1590 1662 c0 -16 131 -596 136 -601 6 -6 624 52 624 58 0 6 -669
494 -731 534 -16 11 -29 14 -29 9z"/>
<path d="M5023 1397 c-205 -150 -373 -275 -373 -278 0 -6 618 -65 624 -58 4 4
136 588 136 602 0 4 -3 7 -7 6 -5 0 -176 -123 -380 -272z"/>
<path d="M873 1497 c-34 -12 -64 -24 -67 -27 -3 -3 96 -107 220 -230 l226
-225 -44 75 c-204 348 -254 430 -263 429 -5 0 -38 -10 -72 -22z"/>
<path d="M5922 1313 c-67 -115 -134 -228 -148 -253 -20 -33 32 13 199 180 125
123 225 225 224 227 -5 4 -137 53 -145 53 -5 0 -63 -93 -130 -207z"/>
<path d="M1081 1419 c9 -13 88 -148 177 -299 89 -152 177 -290 195 -308 l34
-33 63 88 c35 48 74 102 87 120 l24 31 -287 209 c-158 114 -292 210 -298 212
-6 2 -3 -7 5 -20z"/>
<path d="M5635 1234 c-154 -112 -283 -208 -287 -212 -4 -4 31 -60 79 -125 l85
-119 34 33 c40 39 392 632 373 628 -2 0 -130 -92 -284 -205z"/>
<path d="M2998 1242 c-251 -81 -459 -149 -462 -152 -3 -3 194 -97 437 -210
243 -112 454 -209 470 -217 l27 -14 0 371 c0 203 -3 370 -7 369 -5 -1 -214
-67 -465 -147z"/>
<path d="M3530 1021 c0 -351 1 -371 18 -363 9 5 221 103 470 217 248 115 449
212 445 216 -5 4 -210 71 -458 149 -247 79 -456 145 -462 147 -10 4 -13 -73
-13 -366z"/>
<path d="M2065 1031 c-148 -14 -270 -29 -270 -33 0 -5 560 -416 603 -442 9 -6
12 47 12 248 l0 256 -37 -1 c-21 -1 -159 -13 -308 -28z"/>
<path d="M4590 805 c0 -213 2 -255 14 -248 7 4 147 105 310 223 225 163 292
217 279 222 -14 5 -560 58 -595 58 -5 0 -8 -115 -8 -255z"/>
<path d="M2467 792 c-4 -140 -5 -258 -2 -261 3 -6 880 82 907 91 10 4 -145 77
-738 351 l-161 74 -6 -255z"/>
<path d="M4071 836 c-250 -116 -449 -212 -442 -214 24 -8 902 -98 905 -92 1 3
0 120 -3 260 l-6 256 -454 -210z"/>
<path d="M1622 866 c-45 -62 -82 -118 -82 -123 0 -6 20 -18 43 -27 51 -19 676
-158 690 -153 9 3 -553 417 -565 417 -3 0 -41 -51 -86 -114z"/>
<path d="M5010 780 c-271 -198 -321 -236 -290 -226 8 3 161 37 339 76 321 71
401 93 401 112 0 11 -162 238 -170 238 -3 -1 -129 -91 -280 -200z"/>
<path d="M1960 524 c69 -36 196 -101 283 -145 l157 -79 0 85 c0 80 -1 85 -22
90 -181 41 -524 115 -532 115 -6 0 45 -30 114 -66z"/>
<path d="M4871 529 c-146 -32 -269 -63 -274 -68 -6 -6 -7 -40 -2 -85 l7 -75
156 79 c258 130 408 210 392 209 -8 0 -134 -27 -279 -60z"/>
<path d="M3205 545 c-115 -13 -306 -33 -422 -46 -117 -12 -213 -25 -213 -28 0
-3 62 -32 138 -63 75 -31 261 -108 412 -171 151 -63 292 -117 313 -120 l37 -6
0 230 0 229 -27 -1 c-16 -1 -122 -12 -238 -24z"/>
<path d="M3530 340 l0 -230 25 5 c14 3 37 8 52 11 24 5 811 331 822 340 2 2 2
6 0 8 -3 3 -868 96 -891 96 -5 0 -8 -104 -8 -230z"/>
<path d="M2460 359 c0 -49 3 -89 6 -89 3 0 148 -23 321 -50 174 -28 318 -49
320 -47 3 4 -98 47 -519 223 l-128 53 0 -90z"/>
<path d="M4203 308 c-172 -73 -311 -133 -309 -135 2 -2 146 19 321 47 174 27
319 50 321 50 2 0 4 38 4 85 0 62 -3 85 -12 85 -7 -1 -154 -60 -325 -132z"/>
</g>
</svg>
