<svg xmlns="http://www.w3.org/2000/svg" xmlns:xlink="http://www.w3.org/1999/xlink" width="110" height="15" viewBox="0 0 110 15">
    <defs>
        <path id="a" d="M0 .292h4.7v9.569H0z"/>
        <path id="c" d="M.093.011h4.36v3.282H.093z"/>
    </defs>
    <g fill="none" fill-rule="evenodd">
        <path fill="#FFF" d="M65.117 3.325h7.512V4.42h-6.332v3.75h5.66v1.08h-5.66v4.575h-1.18zM78.752 10.975v-.75a8.02 8.02 0 0 0-2.27-.33c-1.449 0-2.255.63-2.255 1.605v.03c0 .975.896 1.545 1.941 1.545 1.419 0 2.584-.87 2.584-2.1m-5.69.6v-.03c0-1.635 1.344-2.505 3.3-2.505.986 0 1.688.135 2.375.33V9.1c0-1.395-.851-2.115-2.3-2.115-.91 0-1.628.24-2.345.57l-.343-.945c.851-.39 1.687-.645 2.808-.645 1.09 0 1.926.285 2.493.855.523.525.792 1.275.792 2.265v4.74h-1.105v-1.17c-.538.705-1.434 1.335-2.793 1.335-1.434 0-2.882-.825-2.882-2.415M81.47 10.885V6.07h1.15v4.53c0 1.44.776 2.34 2.135 2.34 1.314 0 2.315-.975 2.315-2.43V6.07h1.135v7.755H87.07v-1.35c-.523.84-1.315 1.515-2.644 1.515-1.866 0-2.957-1.26-2.957-3.105M89.608 9.985v-.03c0-2.19 1.703-4.05 3.958-4.05 1.463 0 2.374.615 3.091 1.38l-.762.81c-.612-.645-1.299-1.17-2.344-1.17-1.568 0-2.763 1.335-2.763 3v.03c0 1.68 1.225 3.015 2.837 3.015.986 0 1.748-.495 2.36-1.155l.732.69c-.777.87-1.703 1.5-3.151 1.5-2.255 0-3.958-1.845-3.958-4.02M103.347 9.52c-.119-1.41-.925-2.64-2.464-2.64-1.344 0-2.36 1.125-2.509 2.64h4.973zm-6.137.45v-.03c0-2.235 1.568-4.035 3.703-4.035 2.285 0 3.6 1.83 3.6 4.095 0 .15 0 .24-.016.375h-6.123C98.54 12.055 99.72 13 101.092 13c1.06 0 1.807-.435 2.435-1.095l.717.645c-.777.87-1.718 1.455-3.181 1.455-2.121 0-3.853-1.634-3.853-4.035zM106.23 11.77V7.09h-1.075V6.07h1.075V3.73h1.15v2.34h2.449v1.02h-2.45v4.53c0 .945.524 1.29 1.3 1.29.388 0 .717-.075 1.12-.27v.99a2.88 2.88 0 0 1-1.389.33c-1.24 0-2.18-.615-2.18-2.19M44.223 5.13c-.06-.006-.186-.018-.451-.018-.23 0-.445.021-.644.063-.83.162-1.36.615-1.819 1.095v-.95h-2.6v8.466h2.6V10.25c0-.418.024-.801.07-1.15a2.22 2.22 0 0 1 .303-.897c.157-.25.379-.444.668-.583.289-.14.682-.21 1.179-.21a3.589 3.589 0 0 1 1.11.175V5.199a2.217 2.217 0 0 0-.416-.07M51.18 5.13c-.06-.006-.185-.018-.45-.018-.23 0-.445.021-.644.063-.83.162-1.36.615-1.819 1.095v-.95h-2.6v8.466h2.6V10.25c0-.418.024-.801.07-1.15.046-.348.147-.647.303-.897.157-.25.379-.444.668-.583.289-.14.682-.21 1.179-.21a3.585 3.585 0 0 1 1.11.175V5.199a2.217 2.217 0 0 0-.416-.07M23.76 4.973h-3.504V2.569h9.711v2.404h-3.503v8.813H23.76zM35.074 8.595a1.517 1.517 0 0 0-.434-1.132c-.3-.313-.688-.47-1.162-.47-.288 0-.543.046-.763.139-.22.093-.407.212-.563.357a1.565 1.565 0 0 0-.364.505 1.658 1.658 0 0 0-.148.601h3.434zm2.202 3.727a4.151 4.151 0 0 1-1.578 1.237 4.713 4.713 0 0 1-1.977.436 5.276 5.276 0 0 1-1.83-.314 4.39 4.39 0 0 1-1.49-.897 4.208 4.208 0 0 1-.998-1.402c-.242-.546-.364-1.156-.364-1.829s.122-1.283.364-1.829a4.211 4.211 0 0 1 .997-1.402c.422-.389.92-.688 1.492-.897a5.301 5.301 0 0 1 1.83-.313c.6 0 1.146.104 1.638.313.491.21.907.508 1.248.897.341.39.605.856.79 1.402.184.546.277 1.156.277 1.83v.818H31.64c.104.499.33.897.676 1.193.347.296.775.444 1.284.444.427 0 .789-.096 1.084-.287.294-.192.551-.439.771-.74l1.82 1.34zM57.596 10.796v-.143a.43.43 0 0 0-.295-.407 4.093 4.093 0 0 0-1.297-.206c-1.066 0-1.722.418-1.722 1.19v.032c0 .66.558 1.045 1.361 1.045 1.165 0 1.953-.627 1.953-1.511m-5.726.563v-.033c0-1.88 1.46-2.748 3.544-2.748.886 0 1.525.145 2.149.354v-.145c0-1.013-.64-1.575-1.887-1.575-.951 0-1.624.176-2.428.466l-.623-1.865c.968-.418 1.92-.691 3.412-.691 1.362 0 2.346.354 2.97.964.656.643.951 1.592.951 2.749v4.999h-2.411v-.932c-.608.659-1.444 1.093-2.658 1.093-1.657 0-3.019-.933-3.019-2.636"/>
        <path fill="#5493F7" d="M6.562 12.079c.418 1.553 1.918 2.739 2.675 2.69.027-.002 2.873-.535 4.431-3.15 1.213-2.035.8-4-.85-4.043-.593.044-7.053 1.543-6.256 4.503M12.665 2.1h-.002l.003-.002A7.189 7.189 0 0 0 7.975.366c-1.047 0-2.04.225-2.938.626a4.284 4.284 0 0 0-.459.226c-.101.054-.203.108-.302.167l.025.008a3.3 3.3 0 0 0-.764.726C1.459 4.876 8.422 6.88 12.145 6.887c1.713 1.234 2.194-3.478.52-4.786"/>
        <path fill="#FFF" d="M5.456 2.157C4.5 3.6 1.314 4.619.79 4.46l-.003-.007.065-.13a7.659 7.659 0 0 1 1.384-1.896 7.686 7.686 0 0 1 1.498-1.171c.446-.26.903-.277 1.053-.282 1.42.027.678 1.171.67 1.183"/>
        <g transform="translate(0 4.9)">
            <mask id="b" fill="#fff">
                <use xlink:href="#a"/>
            </mask>
            <path fill="#FFF" d="M4.672 7.462c.068.454-.002 2.246-.094 2.397-.08.005-.246.015-.726-.255a7.599 7.599 0 0 1-1.617-1.241A7.613 7.613 0 0 1 .85 6.466 7.7 7.7 0 0 1 .1 4.186 7.722 7.722 0 0 1 .469.294V.292c.55.735 1.187 1.4 1.728 2.142.515.707 1.224 1.858 1.368 2.104.896 1.528 1.038 2.471 1.107 2.924" mask="url(#b)"/>
        </g>
        <path fill="#FFF" d="M15.258 7.845c0 .994-.188 1.943-.531 2.814-.898.97-6.957-1.417-7.016-1.443C6.88 8.85 4.36 7.74 4.132 5.998 3.805 3.49 8.87 1.742 11.097 1.676c.267.003 1.079.012 1.552.399a7.658 7.658 0 0 1 2.609 5.77"/>
        <g transform="translate(9.834 11.486)">
            <mask id="d" fill="#fff">
                <use xlink:href="#c"/>
            </mask>
            <path fill="#FFF" d="M1.322 3.155c-.66.31-1.387.085-1.198-.562C.487 1.353 3.654.081 4.353.012c.086-.008.123.05.084.118a7.724 7.724 0 0 1-3.115 3.025" mask="url(#d)"/>
        </g>
    </g>
</svg>
